# xmcd CD database file generated by OrangeCD 5.2
#
# Track frame offsets:
#	150
#	21757
#	48395
#	87596
#
# Disc length: 1697 seconds
#
# Revision: 0
# Processed by: cddbd v1.5.2PL0 Copyright (c) Steve Scherf et al.
# Submitted via: OrangeCD 5.2
#
DISCID=2b069f04
DTITLE=Robbie Williams - Rudebox [CD Maxi)
DYEAR=2006
DGENRE=Pop
TTITLE0=Rudebox [Album Version]
TTITLE1=Rudebox [Soul Mekanik Dub]
TTITLE2=Rudebox [Chicken Lips Malfunction]
TTITLE3=Rudebox [Chicken Lips Malfunction Dub]
EXTD=
EXTT0=
EXTT1=
EXTT2=
EXTT3=
PLAYORDER=
